<svg width="17" height="17" viewBox="0 0 17 17" fill="none" xmlns="http://www.w3.org/2000/svg">
            <path d="M16.6189 13.4158L13.9935 10.7901C13.4706 10.2693 12.6046 10.2851 12.0634 10.8264L10.7408 12.1488C10.6572 12.1028 10.5707 12.0547 10.4798 12.0036C9.6445 11.5408 8.50131 10.9065 7.29834 9.70263C6.0918 8.49623 5.45688 7.35128 4.99266 6.51549C4.94368 6.42694 4.89674 6.34157 4.85039 6.2605L5.7381 5.3741L6.17454 4.93713C6.71651 4.39501 6.73146 3.52928 6.20975 3.00694L3.58437 0.38097C3.06266 -0.140639 2.19629 -0.124814 1.65432 0.417307L0.914395 1.16148L0.934615 1.18155C0.686509 1.49813 0.479184 1.86326 0.324899 2.257C0.182678 2.6318 0.0941312 2.98945 0.0536431 3.34784C-0.293022 6.22177 1.02028 8.84832 4.58441 12.4125C9.51112 17.3389 13.4814 16.9667 13.6527 16.9485C14.0257 16.904 14.3832 16.8148 14.7466 16.6737C15.1369 16.5212 15.5018 16.3142 15.8181 16.0666L15.8343 16.081L16.5839 15.347C17.1248 14.805 17.1403 13.9389 16.6189 13.4158Z" fill="black"/>
        </svg> 