<svg width="91" height="109" viewBox="0 0 91 109" fill="none" xmlns="http://www.w3.org/2000/svg">
<path d="M75.5 46.0563C75.4229 62.7309 62.0541 76.1681 45.6537 76.0825C29.2532 75.9968 16.0215 62.3797 16.1071 45.748C16.1927 29.1163 29.5701 15.6277 45.9534 15.7133C62.3368 15.799 75.5856 29.3818 75.5 46.0563Z" fill="url(#paint0_linear)"/>
<path d="M22.8732 51.88C22.8732 35.8992 35.6168 22.9415 51.3407 22.9415C57.5334 22.9232 63.5574 24.9593 68.4691 28.7309C65.8483 25.1499 62.421 22.2364 58.4647 20.2263C54.5085 18.2162 50.1345 17.166 45.6969 17.1606C29.9387 17.1606 17.1952 30.1183 17.1952 46.1163C17.1834 50.5868 18.2044 54.9996 20.1787 59.0106C22.153 63.0216 25.0272 66.5223 28.577 69.2396C24.8623 64.215 22.8626 58.1286 22.8732 51.88Z" fill="url(#paint1_linear)"/>
<path d="M32.2339 18.8478C46.793 11.5425 64.6323 17.7259 72.126 32.6448C79.6197 47.5636 73.9245 65.5913 59.391 72.8966C44.8575 80.2019 26.7356 73.9843 19.2334 59.0568C11.7311 44.1294 17.6918 26.1531 32.2339 18.8478Z" stroke="#4C4757" stroke-width="0.64" stroke-miterlimit="10" stroke-linecap="round"/>
<path d="M86.0941 31.8055C86.8734 32.8418 89.1001 40.9178 88.9288 46.7929C88.7069 54.5314 86.432 62.0719 82.3373 68.6421C78.2426 75.2123 72.4751 80.5761 65.6256 84.1842C59.4752 87.2436 52.7112 88.8687 45.8423 88.9374C26.7441 89.023 1.92496 73.9928 2.88415 44.7803C3.56073 25.134 18.4368 2.82418 45.7909 2.73854C68.6145 2.66146 82.2488 21.9138 82.9253 24.1491C83.4478 25.8619 80.7158 27.3178 79.4226 25.4937C72.5712 15.8075 61.4377 6.36977 45.6967 6.25844C26.2216 6.12141 7.94561 22.342 6.75518 42.0397C6.19851 51.2377 7.96274 57.6352 10.866 63.6216C14.1616 70.1178 19.1805 75.5825 25.3735 79.4176C31.5665 83.2528 38.6951 85.3107 45.9793 85.3661C65.2659 85.2805 81.6321 72.1943 84.7324 51.7344C86.745 38.477 79.4311 27.3264 74.0442 21.4771C67.5097 14.4287 56.205 8.27103 46.0649 8.33098C23.6181 8.43375 10.138 25.6821 8.79346 41.5773C8.20253 48.5657 9.01613 55.8453 12.4418 62.5596C18.7708 75.0377 32.602 83.6618 46.1934 83.4734C67.1244 83.1737 78.5576 68.2634 82.2059 55.1344C83.9908 48.2617 83.4857 40.9944 80.7671 34.4347C79.7309 31.8654 76.2881 33.0987 77.2044 36.0105C80.0135 44.8745 79.8765 50.7924 76.819 58.8599C74.4296 65.1631 66.0281 79.611 46.1078 79.8079C41.5732 79.7755 37.0908 78.8384 32.9231 77.0515C28.7554 75.2646 24.9862 72.6638 21.8364 69.4016C18.6867 66.1394 16.2197 62.2813 14.5801 58.0535C12.9404 53.8257 12.161 49.3132 12.2877 44.7803C12.3733 32.9445 20.0468 20.8005 30.932 15.3708C35.4596 13.2081 40.4136 12.0857 45.4312 12.0857C50.4488 12.0857 55.4028 13.2081 59.9304 15.3708C64.5037 17.5803 70.3616 22.3506 74.9264 28.5425" stroke="#4C4757" stroke-width="0.64" stroke-miterlimit="10" stroke-linecap="round"/>
<path d="M79.0115 35.1198C79.0115 35.1198 83.8759 44.0352 79.0115 58.3117C75.8294 66.8369 69.6358 73.9018 61.6004 78.1722C44.806 86.6079 23.0614 79.3112 14.3259 61.9002C5.59042 44.4891 12.4418 23.1214 28.6282 14.6171C38.8025 9.29016 50.3556 7.57732 64.5294 15.9017C69.0513 18.5566 74.4895 23.6095 76.7762 27.5063C78.0694 29.733 74.8664 31.5914 73.2563 29.4932C72.0487 27.9259 62.2427 13.7949 46.0649 13.8121C26.136 13.8121 14.2488 30.0841 14.069 45.8851C13.872 63.1505 29.4846 77.9409 45.6967 77.8724C68.6402 77.7782 77.5984 57.3954 77.4356 47.0412C77.3024 42.9126 76.5489 38.8274 75.2004 34.9229C74.6694 33.2785 74.5152 32.4136 76.485 31.4972C77.9741 30.8553 79.4239 30.126 80.8271 29.3133C84.2528 27.4377 86.1026 27.1894 84.9122 24.1748C83.7218 21.1602 70.2845 1 46.1506 1C20.2352 1 1 21.477 1 47.4352C1 71.5692 22.4105 90.6674 45.9707 90.6674C77.4356 90.6674 90.2134 62.611 90.5988 48.7027C90.8986 37.869 88.4663 32.4307 87.8326 30.8035C86.7364 28.0629 83.3535 30.144 84.1757 32.268C85.7515 36.336 86.7449 38.6911 86.8991 46.3047C87.3787 65.2659 71.749 86.745 45.9707 87.1132C30.8891 87.3273 15.8932 78.3434 9.14457 64.4609C-1.41511 42.6906 7.85137 18.5995 27.3264 8.86195C42.4679 1.29118 58.4916 4.20302 71.8603 14.069C75.2089 16.5526 78.4976 20.9204 80.5445 23.8493" stroke="#4C4757" stroke-width="0.64" stroke-miterlimit="10" stroke-linecap="round"/>
<g style="mix-blend-mode:multiply">
<path d="M65.7543 26.3329C64.8379 26.3329 55.2631 27.4292 46.245 27.4292C37.2269 27.4292 27.6521 26.3329 26.7443 26.3329C25.1256 30.3581 25.6224 36.9868 26.7443 42.3309C26.9584 42.6392 27.0012 42.8533 27.104 42.8105C28.2944 41.1747 33.3987 35.2997 41.0551 33.5697V69.4367C41.0291 69.9556 40.8776 70.4605 40.6136 70.908C40.3495 71.3555 39.9809 71.7322 39.5392 72.0059V72.4769H52.7881V71.9802C52.3355 71.721 51.9595 71.3469 51.6978 70.8958C51.4362 70.4447 51.2982 69.9325 51.2979 69.411V33.5697C58.5603 34.272 64.2127 41.1747 65.4031 42.8105C65.5059 42.8105 65.5487 42.6392 65.7543 42.3309C66.8848 36.9868 67.3815 30.3581 65.7543 26.3329Z" fill="#817E8C"/>
</g>
<path d="M65.2059 25.605C64.2896 25.605 54.7148 26.7012 45.6967 26.7012C36.6785 26.7012 27.1037 25.605 26.1959 25.605C24.5773 29.6302 25.074 36.2589 26.1959 41.603C26.41 41.9113 26.4529 42.1254 26.5556 42.074C27.7461 40.4468 32.8503 34.5717 40.5067 32.8418V68.7087C40.4876 69.235 40.3393 69.7485 40.075 70.204C39.8106 70.6596 39.4383 71.0431 38.9909 71.3208V71.8089H52.2397V71.2951C51.7872 71.0358 51.4111 70.6618 51.1495 70.2106C50.8878 69.7595 50.7499 69.2473 50.7495 68.7258V32.8418C58.012 33.544 63.6644 40.4468 64.8462 42.074C64.9576 42.1254 65.0004 41.9113 65.2059 41.603C66.3364 36.2589 66.8331 29.6302 65.2059 25.605Z" fill="white"/>
<path d="M12.7673 95.1036C12.5018 95.1036 9.68414 95.4205 7.0378 95.4205C4.39146 95.4205 1.57383 95.1036 1.30834 95.1036C0.899825 96.6443 0.899825 98.2648 1.30834 99.8054C1.36829 99.891 1.38542 99.951 1.41111 99.9424C2.43956 98.6075 3.88268 97.6524 5.51337 97.2276V107.779C5.50843 107.934 5.46518 108.086 5.38748 108.22C5.30978 108.354 5.20004 108.468 5.06803 108.549V108.635H8.95618V108.489C8.82134 108.414 8.70952 108.303 8.63262 108.169C8.55572 108.034 8.51659 107.882 8.51941 107.727V97.1933C10.6519 97.3988 12.3134 99.4286 12.6645 99.9081C12.6645 99.9081 12.6645 99.8568 12.7673 99.7711C13.1697 98.2413 13.1697 96.6334 12.7673 95.1036Z" fill="#4C4757"/>
<path d="M28.0544 95.429H33.8524C34.8604 95.4042 35.839 95.7693 36.5844 96.4482C36.9351 96.7754 37.2114 97.1741 37.3946 97.6174C37.5778 98.0607 37.6637 98.5381 37.6464 99.0175C37.6807 99.6314 37.5551 100.244 37.2819 100.795C37.0087 101.346 36.5972 101.816 36.0877 102.161C34.9917 102.873 33.6723 103.16 32.3794 102.966C32.9789 102.691 35.2056 101.518 34.9486 99.36C34.7345 97.4074 32.9104 97.4159 32.3794 97.4159H32.1396V106.563C32.1276 106.986 32.1854 107.408 32.3109 107.813C32.4228 108.13 32.6216 108.409 32.8847 108.618H28.0544C28.3099 108.405 28.5024 108.127 28.6111 107.813C28.7354 107.408 28.7989 106.986 28.7995 106.563V97.5016C28.8129 97.0831 28.752 96.6656 28.6197 96.2683C28.5029 95.9465 28.3088 95.6583 28.0544 95.429Z" fill="#4C4757"/>
<path d="M48.3088 95.429L48.4887 98.161C48.0521 97.845 47.5736 97.5913 47.067 97.4074C46.5803 97.2212 46.0637 97.1254 45.5426 97.1248C45.0543 97.1012 44.5674 97.1928 44.1211 97.3922C43.6748 97.5915 43.2816 97.893 42.9733 98.2724C42.3016 99.2122 41.9804 100.358 42.0655 101.51C41.9754 102.919 42.3385 104.321 43.1018 105.509C43.4584 105.979 43.9259 106.353 44.4624 106.598C44.9989 106.843 45.5877 106.952 46.1763 106.914C46.7923 106.889 47.4013 106.774 47.9834 106.571C48.6093 106.396 49.2085 106.137 49.7647 105.8L48.9083 108.472C48.454 108.636 47.9829 108.748 47.5038 108.806C46.8259 108.931 46.1377 108.991 45.4484 108.986C44.4974 109.048 43.5445 108.901 42.6567 108.555C41.7688 108.208 40.9678 107.672 40.3098 106.982C39.0888 105.615 38.4416 103.83 38.5028 101.998C38.4698 101.084 38.6186 100.173 38.9405 99.3175C39.2625 98.4618 39.7512 97.6786 40.3784 97.0134C41.0036 96.3649 41.7583 95.8551 42.5934 95.5172C43.4285 95.1793 44.3254 95.0209 45.2257 95.0522C45.7153 95.0554 46.2042 95.0868 46.6902 95.1464C47.2383 95.2149 47.7693 95.3091 48.3088 95.429Z" fill="#4C4757"/>
<path d="M50.7669 95.4291H55.6228C55.3579 95.6577 55.1597 95.9536 55.049 96.2855C54.9274 96.6849 54.8724 97.1015 54.8863 97.5187V104.01L59.3054 95.4462H62.9709C62.703 95.6722 62.5042 95.969 62.3971 96.3026C62.268 96.7005 62.2101 97.1179 62.2258 97.5359V106.605C62.2095 107.029 62.2674 107.452 62.3971 107.856C62.5051 108.175 62.7047 108.455 62.9709 108.661H58.1064C58.3857 108.433 58.5889 108.125 58.6888 107.779C58.8133 107.374 58.874 106.952 58.8686 106.528V100.071L54.4067 108.635H50.7498C51.0077 108.423 51.2031 108.145 51.315 107.83C51.4479 107.427 51.5088 107.004 51.4948 106.58V97.5016C51.4974 97.0832 51.4338 96.667 51.3064 96.2684C51.2012 95.9471 51.0155 95.6581 50.7669 95.4291Z" fill="#4C4757"/>
<path d="M85.9397 95.429H90.8042C90.5342 95.6548 90.3326 95.9514 90.2219 96.2855C90.0837 96.6811 90.0283 97.1008 90.0591 97.5187V106.588C90.0276 107.012 90.083 107.437 90.2219 107.839C90.3322 108.159 90.5348 108.439 90.8042 108.644H85.9397C86.2002 108.432 86.3985 108.154 86.5135 107.839C86.6432 107.435 86.7012 107.012 86.6848 106.588V102.546H82.9851V106.588C82.9731 107.012 83.031 107.434 83.1564 107.839C83.2667 108.159 83.4693 108.439 83.7387 108.644H78.8743C79.1324 108.433 79.3254 108.154 79.4309 107.839C79.5631 107.435 79.6268 107.013 79.6194 106.588V97.5016C79.6309 97.0839 79.573 96.6671 79.4481 96.2683C79.334 95.9381 79.1363 95.643 78.8743 95.4119H83.7387C83.4688 95.6377 83.2671 95.9343 83.1564 96.2683C83.0314 96.6671 82.9736 97.0839 82.9851 97.5016V100.645H86.6848V97.5016C86.7006 97.0836 86.6426 96.6662 86.5135 96.2683C86.3969 95.9442 86.1994 95.6553 85.9397 95.429Z" fill="#4C4757"/>
<path d="M13.5467 102.152C13.5161 100.319 14.1661 98.5403 15.3709 97.159C16.6552 95.8407 18.4087 95.0837 20.2489 95.0532C22.0892 95.0227 23.8668 95.7212 25.194 96.9963C26.4201 98.3468 27.0687 100.124 27.0011 101.946C27.0495 103.797 26.3806 105.596 25.1341 106.965C23.842 108.234 22.1114 108.958 20.3004 108.987C18.4894 109.016 16.7368 108.347 15.4051 107.119C14.7752 106.46 14.2856 105.68 13.9661 104.826C13.6467 103.972 13.504 103.063 13.5467 102.152ZM16.7754 101.595C16.7145 103.034 17.0651 104.46 17.786 105.706C18.0538 106.186 18.4453 106.585 18.9198 106.862C19.3942 107.139 19.9343 107.284 20.4837 107.282C20.9437 107.282 21.397 107.172 21.8054 106.96C22.2138 106.749 22.5653 106.442 22.8303 106.066C23.5093 105.058 23.8347 103.853 23.7553 102.64C23.8175 101.144 23.4584 99.6602 22.719 98.358C22.4909 97.8987 22.1456 97.5078 21.718 97.2248C21.2904 96.9418 20.7956 96.7767 20.2837 96.7463C19.7718 96.7159 19.2609 96.8212 18.8028 97.0515C18.3447 97.2819 17.9555 97.6292 17.6747 98.0582C17.0146 99.1151 16.7003 100.351 16.7754 101.595Z" fill="#4C4757"/>
<path d="M64.3584 102.152C64.3278 100.319 64.9778 98.5404 66.1826 97.159C67.4683 95.8402 69.2233 95.083 71.0649 95.0525C72.9066 95.022 74.6856 95.7207 76.0143 96.9963C77.2309 98.3514 77.8728 100.127 77.8042 101.946C77.8494 103.799 77.1775 105.597 75.9286 106.965C74.6366 108.234 72.906 108.958 71.095 108.987C69.284 109.016 67.5313 108.347 66.1997 107.119C65.5744 106.458 65.089 105.677 64.7727 104.823C64.4563 103.97 64.3154 103.061 64.3584 102.152ZM67.5957 101.595C67.5322 103.033 67.8798 104.459 68.5977 105.706C68.8655 106.186 69.257 106.585 69.7315 106.862C70.2059 107.139 70.746 107.284 71.2954 107.282C71.7526 107.287 72.2045 107.183 72.6129 106.977C73.0213 106.772 73.3743 106.471 73.642 106.1C74.321 105.092 74.6463 103.887 74.5669 102.674C74.637 101.181 74.2869 99.6971 73.5564 98.3923C73.3295 97.9328 72.9852 97.5416 72.5583 97.2583C72.1313 96.9751 71.637 96.8098 71.1256 96.7794C70.6141 96.7489 70.1037 96.8544 69.6462 97.085C69.1887 97.3156 68.8003 97.6633 68.5206 98.0925C67.8547 99.1352 67.5314 100.36 67.5957 101.595Z" fill="#4C4757"/>
<defs>
<linearGradient id="paint0_linear" x1="74.7806" y1="84.0986" x2="1.89908" y2="-11.9748" gradientUnits="userSpaceOnUse">
<stop stop-color="#2C3034"/>
<stop offset="0.31" stop-color="#777480"/>
<stop offset="0.54" stop-color="#A09BA7"/>
<stop offset="0.73" stop-color="#777480"/>
<stop offset="0.99" stop-color="#2C3034"/>
</linearGradient>
<linearGradient id="paint1_linear" x1="27.5493" y1="22.4105" x2="53.242" y2="60.9495" gradientUnits="userSpaceOnUse">
<stop stop-color="#BFBDC4"/>
<stop offset="1" stop-color="#96939D"/>
</linearGradient>
</defs>
</svg>
