<svg width="13" height="16" viewBox="0 0 13 16" fill="none" xmlns="http://www.w3.org/2000/svg">
    <path d="M6.54343 0C3.39826 0 0.854004 2.54426 0.854004 5.68942C0.854004 7.32593 1.67226 8.80902 2.47773 10.177C3.46219 11.8776 4.63843 13.4628 6.00645 14.8692C6.30051 15.1759 6.78647 15.1759 7.09319 14.8692C8.295 13.6802 9.35618 12.3377 10.2511 10.9058C11.21 9.35865 12.2456 7.56872 12.2456 5.68942C12.2329 2.55704 9.68859 0 6.54343 0ZM6.54343 8.98801C4.63843 8.98801 3.09142 7.441 3.09142 5.536C3.09142 3.631 4.63843 2.08399 6.54343 2.08399C8.44843 2.08399 9.99544 3.61822 9.99544 5.536C9.99544 7.45378 8.44843 8.98801 6.54343 8.98801Z" fill="#C20029"/>
</svg>
