<svg width="18" height="18" viewBox="0 0 18 18" fill="none" xmlns="http://www.w3.org/2000/svg">
<path d="M17.4646 8.6807C17.4646 13.1196 13.8381 16.718 9.36377 16.718C7.94387 16.718 6.61006 16.3548 5.44896 15.7189L0.964355 17.1431L2.42622 12.8296C1.6891 11.619 1.26458 10.1974 1.26458 8.68016C1.26512 4.24129 4.89047 0.642853 9.36485 0.642853C13.8387 0.643929 17.4646 4.24183 17.4646 8.6807ZM9.36323 1.92447C5.60822 1.92447 2.55374 4.95582 2.55374 8.68231C2.55374 10.1609 3.03583 11.5296 3.85096 12.6434L3.00085 15.1523L5.61683 14.321C6.69292 15.0269 7.98046 15.438 9.36323 15.438C13.1182 15.438 16.1738 12.4072 16.1738 8.6807C16.1749 4.95582 13.1188 1.92447 9.36323 1.92447ZM13.4545 10.5321C13.4039 10.4509 13.2716 10.4014 13.0736 10.3024C12.8761 10.2034 11.8985 9.7272 11.7172 9.66263C11.5342 9.59645 11.4019 9.56309 11.2695 9.76056C11.1388 9.95802 10.7578 10.4014 10.6411 10.5337C10.5254 10.6655 10.4097 10.6822 10.2112 10.5848C10.0127 10.4848 9.37238 10.2782 8.61374 9.60721C8.0235 9.08423 7.62481 8.4402 7.50967 8.24273C7.39291 8.04581 7.49783 7.93928 7.59629 7.84135C7.68507 7.75257 7.79483 7.61107 7.89437 7.49539C7.99391 7.38079 8.02673 7.29954 8.09291 7.16772C8.15801 7.0359 8.12519 6.9213 8.07623 6.82176C8.02673 6.72276 7.63019 5.75428 7.46393 5.35989C7.29875 4.96604 7.13357 5.03114 7.01736 5.03114C6.90168 5.03114 6.76932 5.015 6.63696 5.015C6.5046 5.015 6.28938 5.06289 6.10806 5.26035C5.92674 5.45781 5.41345 5.93398 5.41345 6.90354C5.41345 7.87417 6.1242 8.80983 6.22374 8.94112C6.32382 9.07186 7.59791 11.1267 9.61611 11.9154C11.6354 12.7037 11.6354 12.4406 11.9991 12.4072C12.3639 12.3738 13.1742 11.931 13.3388 11.4715C13.5046 11.0099 13.5046 10.6144 13.4545 10.5321Z" fill="white"/>
</svg>
